<?xml version="1.0" encoding="utf-8" ?>
<svg baseProfile="tiny" height="400px" version="1.2" width="400px" xmlns="http://www.w3.org/2000/svg" xmlns:ev="http://www.w3.org/2001/xml-events" xmlns:xlink="http://www.w3.org/1999/xlink"><defs><linearGradient id="bg_gradient" x1="0" x2="0" y1="0" y2="100%"><stop offset="0" stop-color="#033d8b" /><stop offset="1" stop-color="#011a3b" /></linearGradient><linearGradient id="dolphin_gradient" x1="0" x2="0" y1="100%" y2="0"><stop offset="0" stop-color="#25c1ff" /><stop offset="1" stop-color="#0d92d0" /></linearGradient></defs><rect fill="#50d8ff" height="380" rx="50" ry="50" width="380" x="10" y="10" /><rect fill="url(#bg_gradient)" height="360" rx="40" ry="40" width="360" x="20" y="20" /><g id="dolphin"><path d="M120,250 C180,280 220,280 280,260 C290,200 240,100 200,100 C180,150 140,200 120,250 Z" fill="url(#dolphin_gradient)" /><path d="M32,55 C38,58 52,58 58,56 C59,50 54,40 50,40 C48,45 44,50 42,55 Z" fill="url(#dolphin_gradient)" opacity="0.8" /><path d="M270,250 C280,200,235,110,205,110 C230,115,270,200,265,245 Z" fill="#FFFFFF" opacity="0.5" /><path d="M57,55 C58,50,53,41,50,41 C53,41,57,50,56,54 Z" fill="#FFFFFF" opacity="0.3" /></g><g id="text_group"><text fill="black" font-family="Verdana, Arial, sans-serif" font-size="120px" font-weight="bold" opacity="0.2" x="102" y="312">pD</text><text fill="#FFFFFF" font-family="Verdana, Arial, sans-serif" font-size="120px" font-weight="bold" x="100" y="310">pD</text><text fill="black" font-family="Verdana, Arial, sans-serif" font-size="12px" font-weight="bold" opacity="0.2" x="38" y="59">pD</text><text fill="#FFFFFF" font-family="Verdana, Arial, sans-serif" font-size="12px" font-weight="bold" x="39" y="60">pD</text></g></svg>